<svg width="46" height="46" viewBox="0 0 46 46" fill="none" xmlns="http://www.w3.org/2000/svg">
<path d="M22.9998 15.3501C21.4844 15.3501 20.003 15.7996 18.7431 16.6417C17.4832 17.4839 16.5014 18.6808 15.922 20.0811C15.3425 21.4813 15.1914 23.022 15.4878 24.5082C15.7841 25.9943 16.5147 27.3592 17.587 28.4301C18.6592 29.5009 20.025 30.2297 21.5116 30.5241C22.9981 30.8186 24.5386 30.6654 25.9381 30.0841C27.3376 29.5028 28.5333 28.5195 29.3738 27.2585C30.2143 25.9975 30.6618 24.5155 30.6598 23.0001C30.6572 20.9703 29.849 19.0245 28.4127 17.5901C26.9765 16.1558 25.0297 15.3501 22.9998 15.3501Z" fill="white"/>
<path d="M44.76 8C44.1697 6.47526 43.2681 5.09024 42.1128 3.93324C40.9575 2.77623 39.5739 1.87262 38.05 1.28C36.2626 0.615027 34.3766 0.25338 32.47 0.209999C30 0.0599991 29.24 0 23 0C16.76 0 16 -8.34465e-07 13.53 0.129999C11.638 0.191717 9.76929 0.566807 8 1.24C6.46301 1.83118 5.06719 2.73831 3.90275 3.90275C2.73831 5.06719 1.83118 6.46301 1.24 8C0.569102 9.78229 0.207243 11.666 0.17 13.57C0.0600001 16 0 16.77 0 23C0 29.23 -6.10948e-07 30 0.139999 32.47C0.176302 34.3774 0.538174 36.2645 1.21 38.05C1.80808 39.5832 2.72155 40.9736 3.89123 42.1312C5.06092 43.2888 6.46073 44.1878 8 44.77C9.78424 45.4326 11.6671 45.791 13.57 45.83C16 46 16.76 46 23 46C29.24 46 30 46 32.47 45.86C34.376 45.8193 36.2618 45.461 38.05 44.8C39.5745 44.2085 40.9587 43.3052 42.1141 42.1481C43.2696 40.9909 44.1707 39.6054 44.76 38.08C45.4318 36.2945 45.7937 34.4074 45.83 32.5C45.94 30 46 29.24 46 23C46 16.76 46 16 45.86 13.53C45.8086 11.6377 45.4367 9.76788 44.76 8ZM34.76 23C34.762 25.3359 34.0706 27.6199 32.7734 29.5626C31.4762 31.5053 29.6316 33.0192 27.4733 33.9127C25.315 34.8061 22.94 35.0389 20.6493 34.5815C18.3586 34.1241 16.2552 32.997 14.6055 31.3432C12.9559 29.6893 11.8342 27.583 11.3826 25.2911C10.931 22.9993 11.1698 20.6249 12.0688 18.4689C12.9677 16.3128 14.4864 14.4721 16.4324 13.1799C18.3783 11.8877 20.6641 11.2021 23 11.21C26.1269 11.21 29.1257 12.4522 31.3368 14.6632C33.5478 16.8743 34.79 19.8731 34.79 23H34.76ZM32.5 10.74C32.5 10.1941 32.6619 9.66051 32.9651 9.20663C33.2684 8.75275 33.6995 8.39899 34.2038 8.19009C34.7081 7.9812 35.2631 7.92654 35.7985 8.03303C36.3338 8.13953 36.8256 8.40239 37.2116 8.78838C37.5976 9.17438 37.8605 9.66616 37.967 10.2015C38.0735 10.7369 38.0188 11.2919 37.8099 11.7962C37.601 12.3005 37.2473 12.7316 36.7934 13.0349C36.3395 13.3381 35.8059 13.5 35.26 13.5C34.528 13.5 33.826 13.2092 33.3084 12.6916C32.7908 12.174 32.5 11.472 32.5 10.74Z" fill="white"/>
</svg>
