<svg xmlns="http://www.w3.org/2000/svg" viewBox="0 0 43 43"><defs><style>.cls-1{fill:#fff;fill-rule:evenodd;}</style></defs><g id="Layer_2" data-name="Layer 2"><g id="Layer_1-2" data-name="Layer 1"><path class="cls-1" d="M43,24.25v-5.5l-4.59-.37a18.35,18.35,0,0,0-.71-2.64l3.8-2.61L38.74,8.37l-4.16,2a17.59,17.59,0,0,0-1.93-1.93l2-4.16L29.87,1.5,27.25,5.3a16.69,16.69,0,0,0-2.63-.7L24.25,0h-5.5l-.37,4.6a16.69,16.69,0,0,0-2.63.7L13.13,1.51,8.37,4.26l2,4.16a17.59,17.59,0,0,0-1.93,1.93l-4.16-2L1.51,13.13,5.3,15.74a17.11,17.11,0,0,0-.7,2.64L0,18.75v5.5l4.6.37a16.69,16.69,0,0,0,.7,2.63L1.51,29.87l2.75,4.76,4.16-2a17.59,17.59,0,0,0,1.93,1.93l-2,4.16,4.76,2.75,2.62-3.79a16.69,16.69,0,0,0,2.63.7l.37,4.6h5.5l.37-4.6a16.69,16.69,0,0,0,2.63-.7l2.62,3.79,4.76-2.75-2-4.16a17.59,17.59,0,0,0,1.93-1.93l4.16,2,2.76-4.76-3.8-2.62a17.88,17.88,0,0,0,.71-2.63ZM21.5,25.8a4.3,4.3,0,1,1,4.3-4.3A4.3,4.3,0,0,1,21.5,25.8Z"/></g></g></svg>