<svg xmlns="http://www.w3.org/2000/svg" viewBox="0 0 47 47"><defs><style>.cls-1{fill:#fff;fill-rule:evenodd;}</style></defs><g id="Layer_2" data-name="Layer 2"><g id="Layer_1-2" data-name="Layer 1"><path class="cls-1" d="M41.74,8.69l-.23-.28a23.65,23.65,0,1,0,.23.28ZM23.5,41.12a17.63,17.63,0,1,1,13-29.49,1.28,1.28,0,0,1-.2.5c-.17.25-.32.43-.43.6-.84.24-1.45.31-1.18-.15.73-1.29-3.21-2-4.41-1.93s-1.4,3.74-.91,4.13c-.07,0,2.75,4.24,2.75,4.5,0,.55.73,2.48,0,2.75s-2.3,4.59-1.56,5.14,4.13-2.11,4.13-2.11,2.79-.25,3.21-1.93c.15-.58,1.94-.7,3.14-1.08,0,.48.08,1,.08,1.45A17.63,17.63,0,0,1,23.5,41.12Z"/><path class="cls-1" d="M21.39,21.21c-2.48-.28-.74-.46-2.11-.46-.92.82-1.2-.37-1.84-1.11s-.73-5.14.74-5a2.79,2.79,0,0,1,.43.08c-.15-.14-.29-.59.67-1.73,1.76-2.13-.37-.46-2-.46S13.86,18,13.4,18.73A4.44,4.44,0,0,1,10,20.29c-1.47,0-1.2.73-2,1.19s-.83-.46-1.66.09.19,3.12.19,4.68,2.29,3,2.48,4.32S13.13,32,13.13,32l1.28.92,1.84.36L17.9,31l2,2s.64,2.57,1.29,2.57.64-3.12.27-4A9.67,9.67,0,0,1,21,29.37c-.18-.91.92-2.47,1.19-3.58s1.66-1.37,1.75-3.3S23.87,21.48,21.39,21.21Z"/><path class="cls-1" d="M18.61,14.77c.09.09.18.06,0,0Z"/><path class="cls-1" d="M32.31,32.77a4,4,0,0,0-3-1.28c-.73.09-.64.91-1.56,1.1s-1.19,0-1.92,1-2.58.46-2,1.1,2.54,2.2,3.94,2.2c1.66,0,2.48-1.1,4.13-.82s1.38-2.39,2.67-2.21S32.77,33.6,32.31,32.77Z"/><path class="cls-1" d="M11.17,13.46c2.53-2.14,4.17-4.7,5.46-2.49s5.67-.73,5.67-.73L24,10.7l2.49-3.85s-2.08-.21-3.09-.4c-1.66-.3-4.3-.72-8.34,2S8.64,15.61,11.17,13.46Z"/></g></g></svg>