<svg width="50" height="36" viewBox="0 0 50 36" fill="none" xmlns="http://www.w3.org/2000/svg">
<path d="M44.56 1.58C40.65 0.5 25 0.5 25 0.5C25 0.5 9.35 0.5 5.44 1.5C4.37276 1.79972 3.40203 2.37233 2.62346 3.16142C1.8449 3.95051 1.28536 4.92884 1 6C0 9.91 0 18 0 18C0 18 0 26.16 1 30C1.28339 31.0547 1.83907 32.0164 2.61133 32.7887C3.38358 33.5609 4.34528 34.1166 5.4 34.4C9.39 35.5 25 35.5 25 35.5C25 35.5 40.65 35.5 44.56 34.5C45.6147 34.2166 46.5764 33.6609 47.3487 32.8887C48.1209 32.1164 48.6766 31.1547 48.96 30.1C49.96 26.19 49.96 18.1 49.96 18.1C49.96 18.1 50 9.89 49 6C48.7162 4.93677 48.1559 3.96767 47.376 3.19129C46.5961 2.41491 45.6245 1.85896 44.56 1.58ZM18.49 10.51L31.49 18L18.49 25.5V10.51Z" fill="white"/>
</svg>
